<?xml version="1.0" encoding="UTF-8"?>
<svg width="219" height="230" version="1.1" viewBox="0 0 219 230" xmlns="http://www.w3.org/2000/svg" xmlns:cc="http://creativecommons.org/ns#" xmlns:dc="http://purl.org/dc/elements/1.1/" xmlns:rdf="http://www.w3.org/1999/02/22-rdf-syntax-ns#">
 <metadata>
  <rdf:RDF>
   <cc:Work rdf:about="">
    <dc:format>image/svg+xml</dc:format>
    <dc:type rdf:resource="http://purl.org/dc/dcmitype/StillImage"/>
    <dc:title/>
   </cc:Work>
  </rdf:RDF>
 </metadata>
 <g>
  <path d="m178.36395 218.06292c-13.45889-9.03636-28.36395-24.90234-28.36395-30.19256 0-7.33109 12.39158-22.08185 21.34946-25.41409 4.7149-1.7539 4.95075-1.75057 8.49995 0.11989 4.89561 2.58002 30.91426 28.63404 31.69276 31.73583 0.84404 3.36293-2.25732 9.11869-8.74512 16.22995-5.8912 6.45735-13.03955 11.45806-16.37888 11.45806-1.20464 0-4.82904-1.77169-8.05422-3.93708zm-43.49681-39.03735-10.63287-9.9698-9.86713 2.56609c-18.946895 4.92741-41.336312 4.28801-57.592389-1.64472-32.813837-11.97557-53.5094526-48.19601-48.9122979-85.603875 0.6618344-5.385465 1.9735891-12.285094 2.9150099-15.33251l1.711675-5.540755 0.635541 14.5c0.91249 20.818686 3.488598 32.13166 10.588639 46.5 8.751255 17.7099 21.752878 28.38922 43.293197 35.56033 7.865705 2.61862 11.575374 3.24977 21.635405 3.68095 13.78561 0.59086 26.56025-0.89144 33.35808-3.8707 10.65213-4.66846 25.15063-16.16972 31.35186-24.87058l1.78179-2.5 12.04033 12.45337 12.04032 12.45336-5.58083 1.26748c-7.01981 1.59428-12.01031 4.72659-17.81264 11.18018-5.03177 5.59653-7.67327 10.46145-8.52283 15.6967-0.30783 1.8969-0.83831 3.44787-1.17884 3.44659-0.34054-1e-3 -5.40395-4.48872-11.25202-9.97211zm-57.36714-22.43269c-25.721243-6.91521-44.877318-23.73108-54.468931-47.81472-8.197941-20.584266-7.415593-43.977035 2.13112-63.721984 3.259499-6.741445 5.722395-10.068049 12.215998-16.5 9.370872-9.281904 17.531015-14.037933 31.121813-18.138933 7.951984-2.3994966 10.630247-2.7146696 23-2.7065962 16.29896 0.010638 24.83178 1.856607 37.94602 8.2091472 19.81622 9.598984 34.02729 26.6724 39.18724 47.080206 2.14526 8.484616 2.14578 26.212322 1e-3 35.240959-6.4609 27.198071-24.6555 47.208651-51.63429 56.787841-5.36834 1.90611-8.93741 2.36019-20.5 2.60813-9.46041 0.20287-15.621282-0.13567-19-1.04405zm31.49852-4.09257c14.56393-3.06362 26.36376-9.85425 37.27146-21.4492 8.13823-8.651 13.28013-17.49611 16.88816-29.05111 1.98715-6.364027 2.34186-9.620483 2.34186-21.5 0-11.958419-0.33792-15.02079-2.31727-21-3.43233-10.368341-9.12293-19.239117-17.36188-27.064532-25.35248-24.0799716-68.284607-27.8140609-96.839546-8.422772-28.600541 19.422257-35.724386 62.448103-15.835917 95.644094 6.922623 11.5546 21.119069 23.52956 34.614645 29.19808 11.886183 4.99253 28.044419 6.4209 41.238488 3.64544zm45.07265-59.50031c-0.42376-27.34398-20.85933-51.805097-51.07117-61.131535-5.949323-1.836564-9.774326-2.309918-18.5-2.289421-12.151594 0.02854-19.811263 1.37743-29.29308 5.15858-3.461194 1.380252-6.519734 2.282895-6.796756 2.005873-0.933352-0.933351 12.030838-10.003579 19.089836-13.355956 22.382583-10.629676 44.0273-8.117872 64.66329 7.503984 16.79371 12.713168 25.88735 32.881393 24.39692 54.108475-0.32824 4.675-0.9999 9.85-1.49256 11.5-0.75591 2.531656-0.91147 1.985254-0.99648-3.5z" fill="#b9b9b9"/>
  <path d="m180.8271 219.74488c-5.9695-3.64856-19.5909-15.74252-25.41531-22.56535-3.90224-4.57117-5.41179-7.1651-5.41179-9.29935 0-8.36276 13.11252-23.04449 23.15336-25.92416 4.78016-1.37094 9.76801 2.02044 24.12742 16.40491 15.19454 15.22104 15.67401 16.03528 12.86257 21.84295-4.29368 8.86955-18.28102 21.80402-23.56479 21.791-1.14321-3e-3 -3.73137-1.01532-5.75146-2.25zm-45.99067-40.81971-10.66358-9.99798-7.35432 1.92628c-17.951705 4.702-36.690747 5.29675-51.81853 1.64466-10.40921-2.51296-23.58491-9.46297-31.238345-16.47783-6.91115-6.33451-15.953438-18.9073-19.542806-27.17317-5.6075424-12.91348-7.8827426-28.73013-6.2566835-43.494964 1.0331694-9.381319 3.2639385-19.911603 4.4746095-21.122274 0.309774-0.309774 0.564663 4.799275 0.56642 11.353441 0.0084 31.351217 10.56988 57.898667 28.52222 71.693787 7.453261 5.72732 21.841964 12.38855 31.974585 14.8026 7.80207 1.85881 10.99655 2.07779 24 1.64522 18.48869-0.61505 23.72346-2.12927 36.03108-10.42239 8.31403-5.60216 17.44916-14.06292 20.30122-18.80255 1.1174-1.85692 2.05926-1.10573 13.1653 10.5l11.96181 12.5-4.09797 0.71804c-6.66277 1.16745-12.25192 4.46211-18.26622 10.76748-5.96821 6.25704-9.53675 12.69257-9.57326 17.26448-0.0121 1.5125-0.35946 2.73271-0.77196 2.71157-0.4125-0.0211-5.54861-4.53752-11.41357-10.0364zm-58.33643-22.82071c-28.659833-7.76777-49.233503-28.83666-56.582218-57.944184-3.079563-12.19784-2.425908-32.175295 1.435567-43.874783 10.382631-31.457275 43.317409-50.5575248 79.852931-46.3100442 21.53633 2.5037312 37.95791 10.6665052 51.75933 25.7283302 7.14971 7.802643 13.10973 19.189929 15.59513 29.796221 2.49316 10.639416 1.54156 31.504585-1.88006 41.22278-4.80489 13.64703-9.45423 21.1171-19.15559 30.77722-10.30569 10.26186-16.79817 14.43278-29.26388 18.79975-7.72564 2.70644-10.2978 3.10661-21.76121 3.38558-10.374852 0.25248-14.413541-0.0667-20-1.58087zm35.09004-4.09725c25.8915-6.52297 45.5846-26.44472 52.4952-53.104722 2.79976-10.801018 2.36099-29.790716-0.92196-39.902488-11.37754-35.0438-52.23138-54.9665076-92.041435-44.88476-12.799615 3.241454-21.431899 8.10828-30.593386 17.248351-13.139731 13.109016-18.739809 27.20301-18.729081 47.136409 0.018951 35.21181 22.397485 64.99061 55.200622 73.45468 10.217971 2.6365 24.24892 2.65781 34.59004 0.0525zm42.16395-62.50721c-1.00061-15.629302-7.08081-27.963706-19.52119-39.601073-15.88952-14.863865-34.735831-21.93199-54.731318-20.526447-9.251324 0.650304-21.380474 3.479344-26.690887 6.225465-5.339859 2.761349-4.930925 0.96969 0.80033-3.506478 27.43924-21.430319 60.908635-19.530323 85.115295 4.831839 12.8909 12.973713 19.47461 31.336609 17.71749 49.416554-1.1657 11.994438-2.05708 13.041724-2.68972 3.16014z" fill="#a3a3a3"/>
  <path d="m180.38955 219.36781c-8.10966-5.48808-17.67997-14.15503-25.50666-23.09904-6.25436-7.1472-6.37466-9.80692-0.81984-18.12533 7.83401-11.73152 18.91372-18.75835 24.78764-15.7205 4.10725 2.12417 18.86509 15.66699 26.43319 24.25694 7.7943 8.84668 7.8753 9.4982 2.21557 17.82012-5.93673 8.72921-16.4614 17.5-20.99945 17.5-1.2215 0-3.9712-1.18449-6.11045-2.63219zm-45.56464-40.4854-10.6751-10.02584-10.8249 2.80289c-9.41661 2.43824-12.71133 2.80479-25.32491 2.81747-17.392051 0.01749-25.171435-1.61068-38.784518-8.11736-21.936016-10.48482-38.099071-34.84925-41.1839615-62.08132-1.1900472-10.505222-0.0072846-25.56095 2.6928645-34.27825l1.703603-5.5 0.692082 15.5c1.449289 32.45854 12.178351 56.3 31.126538 69.16747 6.929928 4.70602 17.615545 9.78005 26.253392 12.46633 9.004148 2.80019 39.41638 2.63806 48-0.2559 11.05425-3.72692 30.28119-18.3575 35.3219-26.8779 1.09552-1.85178 2.06394-1.07409 13.06716 10.49354l11.88394 12.49354-5.28262 1.05483c-6.088 1.21565-11.63118 4.60049-17.44858 10.65467-4.76891 4.96302-9.0418 12.9966-9.0418 16.99976 0 1.54201-0.3375 2.78302-0.75 2.75779-0.4125-0.0252-5.55379-4.55751-11.42509-10.07172zm-56.343836-22.28895c-24.15496-5.5124-45.632428-24.06235-55.154476-47.63657-4.230777-10.474345-5.543834-19.090717-5.098525-33.45689 0.349298-11.268743 0.805115-14.147657 3.422729-21.61775 9.110009-25.997952 30.576684-42.267773 60.479582-45.8381186 17.607861-2.1023432 38.025386 2.1674346 53.369616 11.1608256 10.64165 6.237164 22.10291 18.349752 27.24665 28.795043 5.48187 11.1319 7.2204 18.959265 7.23857 32.590037 0.0455 34.114253-20.61198 63.237393-52.48522 73.994363-6.61896 2.23385-10.15787 2.75887-20.5 3.04129-8.191631 0.22369-14.57454-0.13208-18.518926-1.03223zm31.821516-4.20643c25.85451-5.7941 46.86073-26.53035 53.79166-53.100312 2.29087-8.78212 2.79208-25.612735 0.99677-33.471406-6.88028-30.117217-32.43352-50.896005-66.768859-54.293542-14.534681-1.438231-34.368502 3.019748-46.708334 10.49847-11.68728 7.083232-22.696857 21.040548-26.624989 33.753649-7.598924 24.593334-2.120678 52.746011 14.04344 72.169171 10.700011 12.85737 27.571971 22.81944 42.967722 25.37035 6.382513 1.05752 21.68503 0.55664 28.30259-0.92638zm43.78336-60.426931c-0.18566-14.126535-5.71412-27.146962-16.37243-38.55978-21.73114-23.269491-51.900007-30.249756-82.21352-19.021999l-7 2.592715 4.130693-3.735517c14.354649-12.981366 36.096257-18.972412 53.600477-14.76997 11.89786 2.856459 21.99978 8.722865 31.87014 18.507682 13.39991 13.283773 18.3463 25.580084 18.11277 45.02677-0.14833 12.352681-1.98378 20.94296-2.12813 9.960099z" fill="#8c8c8c"/>
  <path d="m179 218.39808c-3.025-2.03328-10.7875-8.95617-17.25-15.38421-10.49388-10.43792-11.75-12.05803-11.75-15.15482 0-6.31633 11.14973-20.41588 19-24.02671 6.55783-3.01637 7.435-3.00967 12.0533 0.092 5.3547 3.59625 26.3113 24.34554 29.05884 28.77136 1.97661 3.18399 1.97663 3.20994 8e-3 7.06927-4.86911 9.54425-16.38977 20.57269-22.75723 21.78495-2.19875 0.4186-4.13822-0.31238-8.36266-3.15186zm-36.56291-32.49253c-1.6154-1.70195-6.40306-6.23022-10.63925-10.06282l-7.70216-6.96837-10.79784 2.76196c-9.51553 2.43396-12.57918 2.75533-25.79784 2.70607-16.57669-0.0618-25.559771-1.81591-37-7.2251-18.078285-8.54781-32.712408-26.17829-39.524575-47.61729-3.1443361-9.89574-3.9085143-31.788971-1.5208851-43.572406 0.9335111-4.607068 2.0048331-8.92603 2.3807141-9.597693 0.375881-0.671662 0.782105 3.953715 0.902719 10.278617 0.544869 28.572452 8.263178 50.315562 23.251362 65.500982 6.273502 6.35606 9.240234 8.45843 18.010665 12.7632 14.873564 7.30036 23.413622 9.30893 39.5 9.29015 24.63968-0.0288 36.06637-4.72158 53.16094-21.83261l9.16094-9.16976 11.08906 11.83245c6.09898 6.50785 11.08906 12.09674 11.08906 12.41976s-1.2375 0.59171-2.75 0.59708c-4.58667 0.0163-12.59965 4.43511-18.20238 10.03785-5.60274 5.60273-10.02156 13.61571-10.03785 18.20238-0.0126 3.53737-0.95569 3.46633-4.57268-0.34445zm-65.43709-29.94819c-35.479479-9.14196-58.969286-40.01975-58.992994-77.547397-0.017666-27.964596 13.175215-50.513886 36.188598-61.853602 14.43626-7.1133863 23.111756-8.8889951 40.741303-8.3384992 13.054933 0.4076502 15.531443 0.7838926 23.913683 3.6330812 23.54042 8.001564 40.0287 23.639174 47.48096 45.031307 2.4292 6.973155 3.08892 10.743853 3.45694 19.758625 0.76067 18.632447-3.21497 33.353585-12.93047 47.879475-10.32406 15.43575-28.60389 27.96131-46.55543 31.90035-9.77192 2.14422-23.948256 1.94698-33.30259-0.46334zm37.64658-4.45695c30.34319-8.821 51.63172-37.8649 51.67523-70.50041 0.04338-32.529753-18.69348-56.588152-51.85904-66.587771-7.83933-2.363607-10.65492-2.701189-22.46277-2.693228-10.575366 0.0071-15.189893 0.465768-21.300482 2.11705-33.347857 9.011692-53.195353 38.945162-48.759103 73.537195 3.454071 26.933414 18.200085 48.171844 41.602296 59.919074 14.461166 7.25908 34.837252 8.93693 51.103869 4.20809zm39.43937-60.356065c-0.1102-8.148439-2.42407-17.060109-6.3988-24.644345-4.06179-7.750359-18.9841-22.720339-27.68715-27.775588-18.88968-10.972256-43.65644-12.588889-64.959712-4.240201l-6.371086 2.49681 2.415399-2.573627c3.844505-4.096352 15.955042-11.189151 24.010245-14.062122 9.672321-3.449733 26.245804-3.909075 34.905154-0.967413 11.41232 3.876873 19.20188 8.76712 28.02468 17.593756 9.16341 9.16739 13.5345 16.483425 16.46791 27.562909 1.758 6.639923 2.13654 25.086477 0.61493 29.965476-0.80743 2.588967-0.94739 2.129205-1.02157-3.355655z" fill="#767676"/>
  <path d="m182.5 220.319c-7.59974-4.05555-28.33024-23.29927-31.44648-29.19117-2.32654-4.39879-0.40376-8.91627 8.18981-19.24156 4.29293-5.158 12.08848-9.88627 16.29963-9.88627 3.8189 0 11.08176 5.82565 24.39116 19.56453 12.50893 12.91258 12.95109 14.07124 8.21795 21.53463-3.70922 5.84883-12.63754 14.5977-17.35115 17.0024-4.42651 2.25824-4.47429 2.25949-8.30092 0.21744zm-47.60399-41.819c-5.642-5.225-10.74951-9.5-11.35003-9.5-0.60051 0-5.58153 1.18122-11.06891 2.62493-13.60886 3.58043-33.566657 3.81997-46.772321 0.56137-22.667866-5.59346-39.190399-19.12559-49.67738-40.6863-5.466795-11.23946-7.0941053-18.11768-7.7322562-32.682253-0.4215189-9.620363-0.1398528-14.99169 1.1666524-22.247871 1.7473158-9.704391 3.3834458-13.635552 2.7022758-6.492809-0.617391 6.473957 1.700135 26.131048 4.279674 36.299893 8.284726 32.65936 31.695502 53.10713 66.034523 57.6768 9.854819 1.31143 29.448962-0.0674 36.629352-2.5775 9.97524-3.48719 25.43356-14.60439 31.8229-22.88616l4.3071-5.5828 11.1312 11.62864c6.12217 6.39575 11.28121 12.01911 11.46454 12.49635 0.18334 0.47724-1.05907 0.86771-2.7609 0.86771-10.46685 0-28.07243 17.23975-28.07243 27.4891 0 1.381-0.41531 2.5109-0.9229 2.5109-0.5076 0-5.53909-4.275-11.18109-9.5zm-55.039683-22.01127c-14.470329-2.88231-26.782325-9.54393-37.867264-20.48873-12.500908-12.34287-19.452811-25.32284-22.683167-42.351958-2.2032-11.614373-1.338701-27.594082 2.0638-38.148042 9.582858-29.724334 35.867581-47.5 70.237838-47.5 31.587456 0 58.578906 15.347591 70.905416 40.317484 6.04371 12.242773 7.81041 20.979997 7.21514 35.682516-0.38806 9.584833-1.0216 13.164438-3.80419 21.49445-12.25741 36.69396-48.89145 58.39931-86.067573 50.99428zm23.760413-2.56825c29.54547-4.1094 52.91545-25.18257 60.97051-54.97833 2.37008-8.766944 2.42921-27.150046 0.11561-35.94215-7.62478-28.97553-34.26252-49.42962-67.284002-51.664778-29.749738-2.0137005-56.241646 11.34929-68.219057 34.410908-5.881956 11.32527-7.545576 18.537448-7.555274 32.75387-0.01002 14.683582 1.758566 22.39151 8.145476 35.5 3.837622 7.87633 6.088428 10.96949 13.169363 18.0979 9.329782 9.39235 17.111972 14.45189 28.284211 18.38883 11.714806 4.12813 20.602801 5.07086 32.373163 3.43375zm50.45355-64.488979c-0.29311-25.307338-25.78351-52.827782-54.57029-58.916257-13.25786-2.804069-30.791826-1.444862-43.440396 3.367435-2.992217 1.138425-5.614688 1.89557-5.827713 1.682546-0.689566-0.689567 10.204858-8.252106 16.374021-11.36629 9.821115-4.957683 16.76688-6.59796 27.894088-6.587327 16.621 0.01588 29.78901 5.877185 43.558 19.388392 12.48074 12.247082 18.00108 25.980228 17.87171 44.460099-0.0783 11.18626-1.7397 18.308677-1.85942 7.971402z" fill="#606060"/>
  <path d="m178.90504 217.86059c-8.23636-5.32294-27.5357-24.54085-28.49894-28.37869-2.10961-8.40536 15.63817-27.37493 25.6913-27.45994 3.2402-0.0274 13.94478 8.94951 26.1526 21.93168 9.84671 10.47129 10.4321 12.24557 6.15547 18.65681-5.4137 8.11589-18.17389 19.38955-21.94621 19.38955-0.63206 0-4.03145-1.86273-7.55422-4.13941zm-44.23355-39.74814-10.81039-9.97473-3.7862 1.33585c-14.12692 4.98427-37.613934 6.37603-52.5749 3.1154-26.17011-5.70357-46.557037-24.58802-55.54844-51.45463-4.2818911-12.79443-5.1573264-28.957876-2.3726446-43.806911l1.8429656-9.827429 0.790161 11.5c2.995959 43.60318 18.044124 67.67382 50.031413 80.02892 12.746788 4.92345 24.892352 6.5051 39.756545 5.17726 15.60499-1.39402 17.71367-2.01808 28.06702-8.30642 10.43422-6.33745 16.64432-11.49205 21.47192-17.82242l3.74115-4.90572 11.10996 11.53214c6.11047 6.34268 11.25995 11.92907 11.44328 12.41419 0.18334 0.48513-1.16666 0.89193-3 0.90401-5.41648 0.0357-11.67166 3.57171-18.32872 10.36113-4.20881 4.29248-6.80769 7.95733-7.97259 11.24268-0.95056 2.68083-2.0257 5.68135-2.38921 6.66782-0.54797 1.48703-2.50869 0.0887-11.47132-8.18114zm-55.17149-21.69893c-28.537729-6.3695-50.402955-27.26092-58.729954-56.11434-3.012581-10.43872-3.245958-32.57569-0.440665-41.79918 3.884139-12.770612 8.450612-20.44438 17.568163-29.522562 13.707553-13.648366 27.737545-19.5876468 48.841338-20.6758807 38.122408-1.9658123 69.160848 17.5149927 79.980328 50.1984427 2.3205 7.009775 2.65528 9.671005 2.7047 21.5 0.041 9.824935-0.4176 15.269476-1.68481 20-2.45555 9.16663-9.73566 23.3945-15.73527 30.75218-9.06767 11.12024-24.33523 20.9147-38.50383 24.70102-8.9311 2.38669-25.511167 2.85499-34 0.96032zm26.5-2.83605c16.73173-3.01784 26.66672-8.25622 39.02677-20.57747 9.70659-9.67612 15.36022-19.29602 19.13354-32.55659 3.24337-11.398132 3.23899-28.911443-0.00987-39.44341-9.76352-31.650798-40.60562-51.6424714-76.630852-49.671677-12.791699 0.699783-20.265122 2.492376-30.019588 7.200571-19.49591 9.410106-32.176749 26.893188-35.519749 48.971106-6.067554 40.07147 20.944018 78.89861 59.773378 85.91981 9.933129 1.79613 14.980327 1.82895 24.246371 0.15766zm48.66667-63.244137c-0.36667-0.366666-0.66667-2.199824-0.66667-4.073683 0-4.476928-4.3077-17.188201-7.63453-22.52818-10.02819-16.096486-28.53524-29.185551-47.109185-33.317862-11.584389-2.577282-28.034935-1.603796-39.756285 2.352637-4.95 1.670827-9.142999 2.901443-9.317776 2.734701-0.565923-0.539903 12.168805-9.187185 17.389174-11.807799 23.146777-11.619629 50.481232-6.502165 70.398082 13.17969 12.28375 12.138816 17.0062 23.257268 17.78691 41.877163 0.49414 11.785349 0.37532 13.048379-1.08972 11.583333z" fill="#494949"/>
  <path d="m182.29922 219.91808c-8.78788-4.3479-32.33202-27.48555-32.27726-31.72 0.0879-6.79628 14.04434-22.93923 21.85549-25.27951 3.82212-1.14513 4.68555-1.07548 7.95501 0.64177 2.01715 1.05948 9.85504 8.10703 17.41754 15.66122 15.51029 15.49325 15.73858 16.00441 10.67327 23.89801-3.863 6.01997-14.73004 16.26882-18.72781 17.66245-2.44532 0.85244-3.76001 0.68774-6.89624-0.86394zm-47.44478-41.86513-10.5989-9.80836-8.85675 2.36507c-17.994253 4.8051-37.03412 4.93003-53.382455 0.35027-24.27635-6.80069-43.510725-26.93751-51.255903-53.66075-1.9519848-6.73494-2.2421594-9.91423-2.1265224-23.29918 0.0891131-10.314816 0.6375453-17.339904 1.6394214-21l1.505511-5.5 0.128899 7.5c0.149868 8.720084 2.431015 25.29764 4.472146 32.5 8.237981 29.06863 24.130461 45.21574 53.331793 54.18629 7.851257 2.41188 10.38771 2.70346 23.78832 2.73458 20.61928 0.0479 26.52456-1.50273 39.97476-10.49669 9.40631-6.28988 15.5065-11.79667 19.85566-17.92418l1.77444-2.5 11.13231 11.42796c9.59113 9.84584 10.86446 11.52817 9.19757 12.15186-1.06411 0.39816-4.0596 1.47547-6.65664 2.39403-4.90176 1.73372-13.15785 8.44198-16.95793 13.7787-1.20535 1.69276-3.13098 5.67222-4.27919 8.84325l-2.08763 5.7655zm-51.318712-21.1657c-24.290838-3.53863-46.133036-19.77462-57.023354-42.38725-6.303181-13.08791-7.929136-20.479155-7.919422-36 0.011105-17.741923 3.265441-28.819479 12.260805-41.735009 21.140013-30.3528017 70.750823-38.0468143 105.534543-16.367078 22.92779 14.290264 35.09564 38.09992 33.27022 65.102087-2.49984 36.97836-29.34424 66.45541-65.04178 71.42048-8.759141 1.21828-12.530865 1.21234-21.081012-0.0332zm28.964272-4.36202c15.71527-4.00579 33.62369-17.06032 42.28404-30.82341 14.14193-22.474452 16.04841-49.310545 5.09382-71.70182-3.35712-6.861981-5.83723-10.167985-12.86976-17.155501-7.2711-7.224558-10.26502-9.405175-18.10968-13.190138-14.18494-6.844083-19.89154-8.100158-36.89842-8.121686-16.681584-0.021116-25.200997 1.855428-37.454933 8.250078-8.870555 4.62905-20.817567 16.340624-25.214138 24.717247-5.951937 11.340002-7.812878 19.468313-7.784153 34 0.0306 15.481996 1.51557 22.06639 7.893485 35 13.178433 26.7242 39.271824 42.44503 68.059739 41.00486 4.95-0.24764 11.7-1.13847 15-1.97963zm42.33492-64.52523c-0.36515-1.375-1.16071-4.975-1.7679-8-3.94626-19.659907-23.21577-39.515157-46.25747-47.663569-14.237823-5.03503-36.50813-4.257591-52.30955 1.826087l-5 1.925042 3-2.557717c11.308264-9.641115 27.03449-15.67196 41.050331-15.742379 28.551199-0.143449 55.220659 21.414075 61.044069 49.343278 1.42899 6.853455 1.65177 26.18338 0.24052 20.869258z" fill="#333"/>
 </g>
</svg>
